<svg width="55" height="54" viewBox="0 0 55 54" fill="none" xmlns="http://www.w3.org/2000/svg">
<path d="M3.66692 35.2347L2.93851 35.2296L2.73237 34.531C2.05036 32.2195 1.68469 29.7735 1.68469 27.2438C1.68469 24.714 2.05036 22.268 2.73237 19.9565L2.93999 19.2528H3.67368H19.0393V3.63431V2.91239L19.7285 2.69741C22.1505 1.94188 24.7253 1.53514 27.3933 1.53514C30.0613 1.53514 32.6361 1.94188 35.0581 2.69741L35.7473 2.91239V3.63431V19.2528H51.1129H51.8466L52.0542 19.9565C52.7362 22.268 53.1019 24.714 53.1019 27.2438C53.1019 29.8976 52.6995 32.4593 51.9516 34.8702L51.7358 35.5658L51.0075 35.5608L35.7473 35.4557V50.8532V51.5751L35.0581 51.7901C32.6361 52.5456 30.0613 52.9524 27.3933 52.9524C24.7253 52.9524 22.1505 52.5456 19.7285 51.7901L19.0393 51.5751V50.8532V35.3406L3.66692 35.2347Z" stroke="url(#paint0_linear_1_80250)" stroke-width="1.96285"/>
<defs>
<linearGradient id="paint0_linear_1_80250" x1="8.47986" y1="55.1104" x2="49.5697" y2="54.736" gradientUnits="userSpaceOnUse">
<stop stop-color="#FCEF52"/>
<stop offset="0.17" stop-color="#FDBC69"/>
<stop offset="0.43" stop-color="#7F431D"/>
<stop offset="0.58" stop-color="#FAA31F"/>
<stop offset="0.79" stop-color="#BE782B"/>
<stop offset="1" stop-color="#BE7C2A"/>
</linearGradient>
</defs>
</svg>
